<svg xmlns="http://www.w3.org/2000/svg" width="121" height="150" fill="none" viewBox="0 0 121 150">
  <path fill="#FEA795" d="M59.359-220h3.718V66.31h-3.718z"/>
  <path fill="#F9DC67" d="M61.838 134.479h-8.676v9.295c.207 2.066 2.231 6.197 6.197 6.197h3.719c3.966 0 5.997-4.131 6.204-6.197v-9.295h-7.444Z"/>
  <path fill="#684142" d="M60.599 66.31h3.099c2.406 0 6.816 3.966 6.816 7.436v18.592l49.12 36.385c.673.498 1.061 1.306 1.214 2.128l.005.032c.146.79.292 1.579-.141 2.356-.692 1.24-1.653 1.24-1.86 1.24H2.965c-.207 0-.868-.248-1.86-1.24-.991-.991-.413-2.892 0-3.718l50.198-37.183V73.746c0-3.47 4.544-6.404 6.817-7.436h2.479Z"/>
  <path fill="#7D5959" d="M61.218 92.338V66.31H59.36l-.148.148a2 2 0 0 0-.566 1.131l-.525 3.678-.62 21.07-38.622 36.784a1.991 1.991 0 0 0-.56.963l-.359 1.431a2 2 0 0 0 0 .97l.499 1.994H33.95l-.499-1.994a2 2 0 0 1 0-.97l.404-1.613c.062-.252.174-.489.327-.698l27.035-36.866Z"/>
  <path fill="#F8F3D4" d="M62.458 141.591v-7.112h-2.479v7.112a2 2 0 0 0 .103.632l.32.963a.86.86 0 0 0 1.632 0l.321-.963c.068-.204.103-.417.103-.632Z"/>
</svg>
