<svg xmlns="http://www.w3.org/2000/svg" fill="none" viewBox="0 0 343 67">
  <path fill="#EE864B" d="M24.096 65V40.136L.96.872h9.888l17.76 31.008L46.272.872h9.888L33.12 40.136V65h-9.024Zm51.244 1.152c-2.752 0-5.472-.48-8.16-1.44-2.688-.96-5.152-2.432-7.392-4.416-2.176-2.048-3.936-4.64-5.28-7.776-1.344-3.136-2.016-6.848-2.016-11.136 0-4.288.672-8 2.016-11.136 1.344-3.136 3.104-5.696 5.28-7.68 2.24-2.048 4.704-3.552 7.392-4.512 2.688-.96 5.408-1.44 8.16-1.44s5.472.48 8.16 1.44c2.752.96 5.216 2.464 7.392 4.512 2.24 1.984 4 4.544 5.28 7.68 1.344 3.136 2.016 6.848 2.016 11.136 0 4.288-.672 8-2.016 11.136-1.28 3.136-3.04 5.728-5.28 7.776a21.263 21.263 0 0 1-7.392 4.416c-2.688.96-5.408 1.44-8.16 1.44Zm0-7.104c2.304 0 4.544-.608 6.72-1.824 2.176-1.28 3.968-3.2 5.376-5.76 1.408-2.624 2.112-5.984 2.112-10.08s-.704-7.424-2.112-9.984c-1.408-2.624-3.2-4.544-5.376-5.76-2.176-1.28-4.416-1.92-6.72-1.92-2.24 0-4.48.64-6.72 1.92-2.176 1.216-3.968 3.136-5.376 5.76-1.408 2.56-2.112 5.888-2.112 9.984s.704 7.456 2.112 10.08c1.408 2.56 3.2 4.48 5.376 5.76 2.24 1.216 4.48 1.824 6.72 1.824ZM108.533 65V17.384h5.951l2.113 7.2c1.344-2.24 3.168-4.128 5.472-5.664 2.368-1.536 5.312-2.304 8.832-2.304 3.648 0 6.592.736 8.832 2.208 2.24 1.472 3.872 3.52 4.896 6.144 1.92-2.944 4.224-5.056 6.912-6.336 2.752-1.344 5.792-2.016 9.12-2.016 5.504 0 9.44 1.696 11.808 5.088 2.368 3.328 3.552 7.712 3.552 13.152V65h-8.064V37.256c0-2.432-.256-4.672-.768-6.72-.448-2.112-1.408-3.808-2.88-5.088-1.408-1.28-3.584-1.92-6.528-1.92-3.456 0-6.24 1.344-8.352 4.032-2.048 2.624-3.072 6.496-3.072 11.616V65h-8.064V37.256c0-2.432-.256-4.672-.768-6.72-.448-2.112-1.408-3.808-2.88-5.088-1.408-1.28-3.584-1.92-6.528-1.92-3.456 0-6.24 1.344-8.352 4.032-2.112 2.624-3.168 6.496-3.168 11.616V65h-8.064Zm95.79 1.152c-3.712 0-6.688-.768-8.928-2.304-2.24-1.6-3.872-3.776-4.896-6.528-.96-2.816-1.44-6.016-1.44-9.6V17.288h8.064V45.8c0 3.52.416 6.24 1.248 8.16.832 1.92 1.984 3.264 3.456 4.032 1.536.704 3.296 1.056 5.28 1.056 3.776 0 6.72-1.312 8.832-3.936 2.176-2.688 3.264-6.56 3.264-11.616V17.288h8.064V65h-6.048l-2.016-6.912c-1.344 2.304-3.168 4.224-5.472 5.76-2.304 1.536-5.44 2.304-9.408 2.304Z"/>
  <path fill="#7C4200" d="M241.296 65V.872h25.824c4.672 0 8.448.768 11.328 2.304 2.944 1.536 5.088 3.52 6.432 5.952a14.764 14.764 0 0 1 2.112 7.68c0 2.56-.576 5.088-1.728 7.584-1.152 2.496-2.816 4.672-4.992 6.528 3.2 1.664 5.568 3.936 7.104 6.816 1.6 2.816 2.4 5.76 2.4 8.832 0 3.072-.8 6.016-2.4 8.832-1.536 2.816-3.872 5.12-7.008 6.912-3.136 1.792-7.04 2.688-11.712 2.688h-27.36Zm9.024-36.672h17.76c3.264 0 5.696-1.024 7.296-3.072 1.664-2.048 2.496-4.288 2.496-6.72 0-1.664-.384-3.264-1.152-4.8-.704-1.536-1.792-2.784-3.264-3.744-1.408-1.024-3.2-1.536-5.376-1.536h-17.76v19.872Zm0 29.088h19.296c2.368 0 4.352-.544 5.952-1.632 1.6-1.088 2.816-2.464 3.648-4.128.832-1.728 1.248-3.52 1.248-5.376 0-1.856-.416-3.584-1.248-5.184-.768-1.664-1.984-3.008-3.648-4.032-1.6-1.088-3.616-1.632-6.048-1.632h-19.2v21.984Zm69.614 8.736c-2.752 0-5.472-.48-8.16-1.44-2.688-.96-5.152-2.432-7.392-4.416-2.176-2.048-3.936-4.64-5.28-7.776-1.344-3.136-2.016-6.848-2.016-11.136 0-4.288.672-8 2.016-11.136 1.344-3.136 3.104-5.696 5.28-7.68 2.24-2.048 4.704-3.552 7.392-4.512 2.688-.96 5.408-1.44 8.16-1.44s5.472.48 8.16 1.44c2.752.96 5.216 2.464 7.392 4.512 2.24 1.984 4 4.544 5.28 7.68 1.344 3.136 2.015 6.848 2.015 11.136 0 4.288-.671 8-2.015 11.136-1.28 3.136-3.04 5.728-5.28 7.776a21.263 21.263 0 0 1-7.392 4.416c-2.688.96-5.408 1.44-8.16 1.44Zm0-7.104c2.304 0 4.544-.608 6.72-1.824 2.176-1.28 3.968-3.2 5.376-5.76 1.408-2.624 2.112-5.984 2.112-10.08s-.704-7.424-2.112-9.984c-1.408-2.624-3.2-4.544-5.376-5.76-2.176-1.28-4.416-1.92-6.72-1.92-2.24 0-4.48.64-6.72 1.92-2.176 1.216-3.968 3.136-5.376 5.76-1.408 2.56-2.112 5.888-2.112 9.984s.704 7.456 2.112 10.08c1.408 2.56 3.2 4.48 5.376 5.76 2.24 1.216 4.48 1.824 6.72 1.824Z"/>
</svg>
